<svg width="2160" height="1080" viewBox="0 0 2160 1080" fill="none" xmlns="http://www.w3.org/2000/svg">
<rect width="2160" height="1080" fill="white"/>
<path fill-rule="evenodd" clip-rule="evenodd" d="M215 62H215.092L239.131 84.6846V786.894H272.914V116.565L297.045 139.336V786.894H330.828V171.216L354.959 193.987V786.894H388.743V225.867L412.874 248.638V786.894H779.664L803.973 809.834H412.874V841.95H838.006L862.315 864.889H412.874V897.005H896.348L920.658 919.945H412.874V952.06H954.691L979 975H415.945L388.743 949.33V919.945H357.603L330.828 894.679V864.889H299.26L272.914 840.028V809.834H240.918L216.609 786.894L215 788.413V786.894V62ZM297.045 841.95V809.834H330.828V841.95H297.045ZM354.959 841.95V809.834H388.743V841.95H354.959ZM354.959 864.889H388.743V897.005H354.959V864.889Z" fill="url(#paint0_linear_4_154)"/>
<path d="M570.591 528V411.636H584.682V515.5H638.773V528H570.591ZM660.591 528V411.636H730.818V424.136H674.682V463.455H727.182V475.955H674.682V515.5H731.727V528H660.591ZM835.761 448C834.511 444.174 832.864 440.746 830.818 437.716C828.811 434.648 826.405 432.034 823.602 429.875C820.837 427.716 817.693 426.068 814.17 424.932C810.648 423.795 806.784 423.227 802.58 423.227C795.686 423.227 789.417 425.008 783.773 428.568C778.129 432.129 773.64 437.375 770.307 444.307C766.973 451.239 765.307 459.742 765.307 469.818C765.307 479.894 766.992 488.398 770.364 495.33C773.735 502.261 778.299 507.508 784.057 511.068C789.814 514.629 796.292 516.409 803.489 516.409C810.155 516.409 816.027 514.989 821.102 512.148C826.216 509.269 830.193 505.216 833.034 499.989C835.913 494.723 837.352 488.53 837.352 481.409L841.67 482.318H806.67V469.818H850.989V482.318C850.989 491.902 848.943 500.235 844.852 507.318C840.799 514.402 835.193 519.894 828.034 523.795C820.913 527.659 812.731 529.591 803.489 529.591C793.186 529.591 784.133 527.167 776.33 522.318C768.564 517.47 762.504 510.576 758.148 501.636C753.83 492.697 751.67 482.091 751.67 469.818C751.67 460.614 752.902 452.337 755.364 444.989C757.864 437.602 761.386 431.314 765.932 426.125C770.477 420.936 775.856 416.958 782.068 414.193C788.28 411.428 795.117 410.045 802.58 410.045C808.716 410.045 814.436 410.973 819.739 412.83C825.08 414.648 829.833 417.242 834 420.614C838.205 423.947 841.708 427.943 844.511 432.602C847.314 437.223 849.246 442.356 850.307 448H835.761ZM876.301 528H861.528L904.256 411.636H918.801L961.528 528H946.756L911.983 430.045H911.074L876.301 528ZM881.756 482.545H941.301V495.045H881.756V482.545ZM1067.82 448H1053.73C1052.9 443.947 1051.44 440.386 1049.36 437.318C1047.31 434.25 1044.81 431.674 1041.86 429.591C1038.94 427.47 1035.7 425.879 1032.14 424.818C1028.58 423.758 1024.87 423.227 1021 423.227C1013.96 423.227 1007.57 425.008 1001.86 428.568C996.173 432.129 991.647 437.375 988.276 444.307C984.942 451.239 983.276 459.742 983.276 469.818C983.276 479.894 984.942 488.398 988.276 495.33C991.647 502.261 996.173 507.508 1001.86 511.068C1007.57 514.629 1013.96 516.409 1021 516.409C1024.87 516.409 1028.58 515.879 1032.14 514.818C1035.7 513.758 1038.94 512.186 1041.86 510.102C1044.81 507.981 1047.31 505.386 1049.36 502.318C1051.44 499.212 1052.9 495.652 1053.73 491.636H1067.82C1066.76 497.583 1064.83 502.905 1062.03 507.602C1059.22 512.299 1055.74 516.295 1051.57 519.591C1047.4 522.848 1042.73 525.33 1037.54 527.034C1032.39 528.739 1026.87 529.591 1021 529.591C1011.08 529.591 1002.25 527.167 994.526 522.318C986.798 517.47 980.719 510.576 976.287 501.636C971.855 492.697 969.639 482.091 969.639 469.818C969.639 457.545 971.855 446.939 976.287 438C980.719 429.061 986.798 422.167 994.526 417.318C1002.25 412.47 1011.08 410.045 1021 410.045C1026.87 410.045 1032.39 410.898 1037.54 412.602C1042.73 414.307 1047.4 416.807 1051.57 420.102C1055.74 423.36 1059.22 427.337 1062.03 432.034C1064.83 436.693 1066.76 442.015 1067.82 448ZM1080.59 411.636H1096.73L1129 465.955H1130.36L1162.64 411.636H1178.77L1136.73 480.045V528H1122.64V480.045L1080.59 411.636ZM1235.63 424.136V411.636H1322.91V424.136H1286.32V528H1272.22V424.136H1235.63ZM1344.65 528V411.636H1414.88V424.136H1358.74V463.455H1411.24V475.955H1358.74V515.5H1415.79V528H1344.65ZM1447.1 411.636L1477.1 460.045H1478.01L1508.01 411.636H1524.6L1488.01 469.818L1524.6 528H1508.01L1478.01 480.5H1477.1L1447.1 528H1430.51L1468.01 469.818L1430.51 411.636H1447.1ZM1536.57 424.136V411.636H1623.84V424.136H1587.25V528H1573.16V424.136H1536.57ZM1659.68 411.636V528H1645.59V411.636H1659.68ZM1687.93 528V411.636H1702.03V515.5H1756.12V528H1687.93ZM1777.93 528V411.636H1848.16V424.136H1792.03V463.455H1844.53V475.955H1792.03V515.5H1849.07V528H1777.93Z" fill="url(#paint1_linear_4_154)"/>
<path d="M951.091 629L938.364 582.455H944.091L953.818 620.364H954.273L964.182 582.455H970.545L980.455 620.364H980.909L990.636 582.455H996.364L983.636 629H977.818L967.545 591.909H967.182L956.909 629H951.091ZM1013.59 629.727C1010.44 629.727 1007.67 628.977 1005.3 627.477C1002.93 625.977 1001.08 623.879 999.75 621.182C998.432 618.485 997.773 615.333 997.773 611.727C997.773 608.091 998.432 604.917 999.75 602.205C1001.08 599.492 1002.93 597.386 1005.3 595.886C1007.67 594.386 1010.44 593.636 1013.59 593.636C1016.74 593.636 1019.5 594.386 1021.86 595.886C1024.24 597.386 1026.09 599.492 1027.41 602.205C1028.74 604.917 1029.41 608.091 1029.41 611.727C1029.41 615.333 1028.74 618.485 1027.41 621.182C1026.09 623.879 1024.24 625.977 1021.86 627.477C1019.5 628.977 1016.74 629.727 1013.59 629.727ZM1013.59 624.909C1015.98 624.909 1017.95 624.295 1019.5 623.068C1021.05 621.841 1022.19 620.227 1022.93 618.227C1023.67 616.227 1024.05 614.061 1024.05 611.727C1024.05 609.394 1023.67 607.22 1022.93 605.205C1022.19 603.189 1021.05 601.561 1019.5 600.318C1017.95 599.076 1015.98 598.455 1013.59 598.455C1011.2 598.455 1009.23 599.076 1007.68 600.318C1006.14 601.561 1004.99 603.189 1004.25 605.205C1003.51 607.22 1003.14 609.394 1003.14 611.727C1003.14 614.061 1003.51 616.227 1004.25 618.227C1004.99 620.227 1006.14 621.841 1007.68 623.068C1009.23 624.295 1011.2 624.909 1013.59 624.909ZM1037.6 629V594.091H1042.78V599.364H1043.14C1043.78 597.636 1044.93 596.235 1046.6 595.159C1048.26 594.083 1050.14 593.545 1052.23 593.545C1052.63 593.545 1053.12 593.553 1053.71 593.568C1054.3 593.583 1054.75 593.606 1055.05 593.636V599.091C1054.87 599.045 1054.45 598.977 1053.8 598.886C1053.16 598.78 1052.49 598.727 1051.78 598.727C1050.08 598.727 1048.57 599.083 1047.23 599.795C1045.91 600.492 1044.87 601.462 1044.1 602.705C1043.34 603.932 1042.96 605.333 1042.96 606.909V629H1037.6ZM1061.41 629V594.091H1066.59V599.364H1066.95C1067.59 597.636 1068.74 596.235 1070.41 595.159C1072.08 594.083 1073.95 593.545 1076.05 593.545C1076.44 593.545 1076.93 593.553 1077.52 593.568C1078.11 593.583 1078.56 593.606 1078.86 593.636V599.091C1078.68 599.045 1078.27 598.977 1077.61 598.886C1076.98 598.78 1076.3 598.727 1075.59 598.727C1073.89 598.727 1072.38 599.083 1071.05 599.795C1069.73 600.492 1068.68 601.462 1067.91 602.705C1067.15 603.932 1066.77 605.333 1066.77 606.909V629H1061.41ZM1089.74 642.091C1088.83 642.091 1088.02 642.015 1087.31 641.864C1086.59 641.727 1086.1 641.591 1085.83 641.455L1087.19 636.727C1088.5 637.061 1089.65 637.182 1090.65 637.091C1091.65 637 1092.53 636.553 1093.31 635.75C1094.09 634.962 1094.81 633.682 1095.47 631.909L1096.47 629.182L1083.56 594.091H1089.38L1099.01 621.909H1099.38L1109.01 594.091H1114.83L1100.01 634.091C1099.34 635.894 1098.52 637.386 1097.53 638.568C1096.55 639.765 1095.41 640.652 1094.1 641.227C1092.81 641.803 1091.36 642.091 1089.74 642.091ZM1140.64 629V582.455H1168.55V587.455H1146.27V603.182H1166.45V608.182H1146.27V629H1140.64ZM1189.09 629.727C1185.94 629.727 1183.17 628.977 1180.8 627.477C1178.43 625.977 1176.58 623.879 1175.25 621.182C1173.93 618.485 1173.27 615.333 1173.27 611.727C1173.27 608.091 1173.93 604.917 1175.25 602.205C1176.58 599.492 1178.43 597.386 1180.8 595.886C1183.17 594.386 1185.94 593.636 1189.09 593.636C1192.24 593.636 1195 594.386 1197.36 595.886C1199.74 597.386 1201.59 599.492 1202.91 602.205C1204.24 604.917 1204.91 608.091 1204.91 611.727C1204.91 615.333 1204.24 618.485 1202.91 621.182C1201.59 623.879 1199.74 625.977 1197.36 627.477C1195 628.977 1192.24 629.727 1189.09 629.727ZM1189.09 624.909C1191.48 624.909 1193.45 624.295 1195 623.068C1196.55 621.841 1197.69 620.227 1198.43 618.227C1199.17 616.227 1199.55 614.061 1199.55 611.727C1199.55 609.394 1199.17 607.22 1198.43 605.205C1197.69 603.189 1196.55 601.561 1195 600.318C1193.45 599.076 1191.48 598.455 1189.09 598.455C1186.7 598.455 1184.73 599.076 1183.18 600.318C1181.64 601.561 1180.49 603.189 1179.75 605.205C1179.01 607.22 1178.64 609.394 1178.64 611.727C1178.64 614.061 1179.01 616.227 1179.75 618.227C1180.49 620.227 1181.64 621.841 1183.18 623.068C1184.73 624.295 1186.7 624.909 1189.09 624.909ZM1213.1 629V594.091H1218.28V599.364H1218.64C1219.28 597.636 1220.43 596.235 1222.1 595.159C1223.76 594.083 1225.64 593.545 1227.73 593.545C1228.13 593.545 1228.62 593.553 1229.21 593.568C1229.8 593.583 1230.25 593.606 1230.55 593.636V599.091C1230.37 599.045 1229.95 598.977 1229.3 598.886C1228.66 598.78 1227.99 598.727 1227.28 598.727C1225.58 598.727 1224.07 599.083 1222.73 599.795C1221.41 600.492 1220.37 601.462 1219.6 602.705C1218.84 603.932 1218.46 605.333 1218.46 606.909V629H1213.1ZM1293.09 597H1287.45C1287.12 595.379 1286.54 593.955 1285.7 592.727C1284.89 591.5 1283.89 590.47 1282.7 589.636C1281.54 588.788 1280.24 588.152 1278.82 587.727C1277.39 587.303 1275.91 587.091 1274.36 587.091C1271.55 587.091 1268.99 587.803 1266.7 589.227C1264.43 590.652 1262.62 592.75 1261.27 595.523C1259.94 598.295 1259.27 601.697 1259.27 605.727C1259.27 609.758 1259.94 613.159 1261.27 615.932C1262.62 618.705 1264.43 620.803 1266.7 622.227C1268.99 623.652 1271.55 624.364 1274.36 624.364C1275.91 624.364 1277.39 624.152 1278.82 623.727C1280.24 623.303 1281.54 622.674 1282.7 621.841C1283.89 620.992 1284.89 619.955 1285.7 618.727C1286.54 617.485 1287.12 616.061 1287.45 614.455H1293.09C1292.67 616.833 1291.89 618.962 1290.77 620.841C1289.65 622.72 1288.26 624.318 1286.59 625.636C1284.92 626.939 1283.05 627.932 1280.98 628.614C1278.92 629.295 1276.71 629.636 1274.36 629.636C1270.39 629.636 1266.86 628.667 1263.77 626.727C1260.68 624.788 1258.25 622.03 1256.48 618.455C1254.7 614.879 1253.82 610.636 1253.82 605.727C1253.82 600.818 1254.7 596.576 1256.48 593C1258.25 589.424 1260.68 586.667 1263.77 584.727C1266.86 582.788 1270.39 581.818 1274.36 581.818C1276.71 581.818 1278.92 582.159 1280.98 582.841C1283.05 583.523 1284.92 584.523 1286.59 585.841C1288.26 587.144 1289.65 588.735 1290.77 590.614C1291.89 592.477 1292.67 594.606 1293.09 597ZM1306.84 608V629H1301.47V582.455H1306.84V599.545H1307.29C1308.11 597.742 1309.34 596.311 1310.97 595.25C1312.62 594.174 1314.82 593.636 1317.56 593.636C1319.94 593.636 1322.02 594.114 1323.81 595.068C1325.6 596.008 1326.99 597.455 1327.97 599.409C1328.97 601.348 1329.47 603.818 1329.47 606.818V629H1324.11V607.182C1324.11 604.409 1323.39 602.265 1321.95 600.75C1320.52 599.22 1318.55 598.455 1316.02 598.455C1314.26 598.455 1312.68 598.826 1311.29 599.568C1309.91 600.311 1308.82 601.394 1308.02 602.818C1307.23 604.242 1306.84 605.97 1306.84 608ZM1353.47 629.727C1350.31 629.727 1347.55 628.977 1345.17 627.477C1342.81 625.977 1340.96 623.879 1339.62 621.182C1338.31 618.485 1337.65 615.333 1337.65 611.727C1337.65 608.091 1338.31 604.917 1339.62 602.205C1340.96 599.492 1342.81 597.386 1345.17 595.886C1347.55 594.386 1350.31 593.636 1353.47 593.636C1356.62 593.636 1359.38 594.386 1361.74 595.886C1364.12 597.386 1365.97 599.492 1367.28 602.205C1368.62 604.917 1369.28 608.091 1369.28 611.727C1369.28 615.333 1368.62 618.485 1367.28 621.182C1365.97 623.879 1364.12 625.977 1361.74 627.477C1359.38 628.977 1356.62 629.727 1353.47 629.727ZM1353.47 624.909C1355.86 624.909 1357.83 624.295 1359.38 623.068C1360.92 621.841 1362.06 620.227 1362.81 618.227C1363.55 616.227 1363.92 614.061 1363.92 611.727C1363.92 609.394 1363.55 607.22 1362.81 605.205C1362.06 603.189 1360.92 601.561 1359.38 600.318C1357.83 599.076 1355.86 598.455 1353.47 598.455C1351.07 598.455 1349.1 599.076 1347.56 600.318C1346.01 601.561 1344.87 603.189 1344.12 605.205C1343.38 607.22 1343.01 609.394 1343.01 611.727C1343.01 614.061 1343.38 616.227 1344.12 618.227C1344.87 620.227 1346.01 621.841 1347.56 623.068C1349.1 624.295 1351.07 624.909 1353.47 624.909ZM1377.47 629V594.091H1382.84V629H1377.47ZM1380.2 588.273C1379.15 588.273 1378.25 587.917 1377.49 587.205C1376.75 586.492 1376.38 585.636 1376.38 584.636C1376.38 583.636 1376.75 582.78 1377.49 582.068C1378.25 581.356 1379.15 581 1380.2 581C1381.24 581 1382.14 581.356 1382.88 582.068C1383.64 582.78 1384.02 583.636 1384.02 584.636C1384.02 585.636 1383.64 586.492 1382.88 587.205C1382.14 587.917 1381.24 588.273 1380.2 588.273ZM1406.84 629.727C1403.57 629.727 1400.75 628.955 1398.39 627.409C1396.02 625.864 1394.2 623.735 1392.93 621.023C1391.66 618.311 1391.02 615.212 1391.02 611.727C1391.02 608.182 1391.67 605.053 1392.98 602.341C1394.3 599.614 1396.13 597.485 1398.48 595.955C1400.84 594.409 1403.6 593.636 1406.75 593.636C1409.2 593.636 1411.42 594.091 1413.39 595C1415.36 595.909 1416.97 597.182 1418.23 598.818C1419.48 600.455 1420.27 602.364 1420.57 604.545H1415.2C1414.8 602.955 1413.89 601.545 1412.48 600.318C1411.08 599.076 1409.2 598.455 1406.84 598.455C1404.75 598.455 1402.92 599 1401.34 600.091C1399.78 601.167 1398.56 602.689 1397.68 604.659C1396.82 606.614 1396.39 608.909 1396.39 611.545C1396.39 614.242 1396.81 616.591 1397.66 618.591C1398.52 620.591 1399.73 622.144 1401.3 623.25C1402.87 624.356 1404.72 624.909 1406.84 624.909C1408.23 624.909 1409.5 624.667 1410.64 624.182C1411.77 623.697 1412.73 623 1413.52 622.091C1414.31 621.182 1414.87 620.091 1415.2 618.818H1420.57C1420.27 620.879 1419.52 622.735 1418.32 624.386C1417.14 626.023 1415.57 627.326 1413.61 628.295C1411.67 629.25 1409.42 629.727 1406.84 629.727ZM1443.05 629.727C1439.68 629.727 1436.78 628.985 1434.34 627.5C1431.92 626 1430.05 623.909 1428.73 621.227C1427.42 618.53 1426.77 615.394 1426.77 611.818C1426.77 608.242 1427.42 605.091 1428.73 602.364C1430.05 599.621 1431.88 597.485 1434.23 595.955C1436.59 594.409 1439.35 593.636 1442.5 593.636C1444.32 593.636 1446.11 593.939 1447.89 594.545C1449.66 595.152 1451.27 596.136 1452.73 597.5C1454.18 598.848 1455.34 600.636 1456.2 602.864C1457.07 605.091 1457.5 607.833 1457.5 611.091V613.364H1430.59V608.727H1452.05C1452.05 606.758 1451.65 605 1450.86 603.455C1450.09 601.909 1448.98 600.689 1447.55 599.795C1446.12 598.902 1444.44 598.455 1442.5 598.455C1440.36 598.455 1438.52 598.985 1436.95 600.045C1435.41 601.091 1434.22 602.455 1433.39 604.136C1432.55 605.818 1432.14 607.621 1432.14 609.545V612.636C1432.14 615.273 1432.59 617.508 1433.5 619.341C1434.42 621.159 1435.7 622.545 1437.34 623.5C1438.98 624.439 1440.88 624.909 1443.05 624.909C1444.45 624.909 1445.73 624.712 1446.86 624.318C1448.02 623.909 1449.01 623.303 1449.84 622.5C1450.67 621.682 1451.32 620.667 1451.77 619.455L1456.95 620.909C1456.41 622.667 1455.49 624.212 1454.2 625.545C1452.92 626.864 1451.33 627.894 1449.43 628.636C1447.54 629.364 1445.41 629.727 1443.05 629.727ZM1472.75 582.455L1472.3 615.909H1467.02L1466.57 582.455H1472.75ZM1469.66 629.364C1468.54 629.364 1467.58 628.962 1466.77 628.159C1465.97 627.356 1465.57 626.394 1465.57 625.273C1465.57 624.152 1465.97 623.189 1466.77 622.386C1467.58 621.583 1468.54 621.182 1469.66 621.182C1470.78 621.182 1471.74 621.583 1472.55 622.386C1473.35 623.189 1473.75 624.152 1473.75 625.273C1473.75 626.015 1473.56 626.697 1473.18 627.318C1472.82 627.939 1472.33 628.439 1471.7 628.818C1471.1 629.182 1470.42 629.364 1469.66 629.364Z" fill="url(#paint2_linear_4_154)"/>
<defs>
<linearGradient id="paint0_linear_4_154" x1="597" y1="62" x2="597" y2="975" gradientUnits="userSpaceOnUse">
<stop stop-color="#DA8CFF"/>
<stop offset="1" stop-color="#9A55FF"/>
</linearGradient>
<linearGradient id="paint1_linear_4_154" x1="1208" y1="373" x2="1208" y2="567" gradientUnits="userSpaceOnUse">
<stop stop-color="#DA8CFF"/>
<stop offset="1" stop-color="#9A55FF"/>
</linearGradient>
<linearGradient id="paint2_linear_4_154" x1="1208" y1="567" x2="1208" y2="644" gradientUnits="userSpaceOnUse">
<stop stop-color="#DA8CFF"/>
<stop offset="1" stop-color="#9A55FF"/>
</linearGradient>
</defs>
</svg>
