<svg width="1080" height="720" viewBox="0 0 1080 720" fill="none" xmlns="http://www.w3.org/2000/svg">
<rect width="1080" height="720" fill="white"/>
<path fill-rule="evenodd" clip-rule="evenodd" d="M65 62H65.0571L80 76.8333V536H101V97.6791L116 112.569V536H137V133.415L152 148.305V536H173V169.151L188 184.041V536H416L431.111 551H188V572H452.266L467.377 587H188V608H488.532L503.643 623H188V644H524.798L539.909 659H189.909L173 642.215V623H153.643L137 606.479V587H117.377L101 570.743V551H81.1109L66 536L65 536.993V536V62ZM116 572V551H137V572H116ZM152 572V551H173V572H152ZM152 587H173V608H152V587Z" fill="black"/>
<path d="M263.455 395V325.182H271.909V387.5H304.364V395H263.455ZM317.455 395V325.182H359.591V332.682H325.909V356.273H357.409V363.773H325.909V387.5H360.136V395H317.455ZM422.557 347C421.807 344.705 420.818 342.648 419.591 340.83C418.386 338.989 416.943 337.42 415.261 336.125C413.602 334.83 411.716 333.841 409.602 333.159C407.489 332.477 405.17 332.136 402.648 332.136C398.511 332.136 394.75 333.205 391.364 335.341C387.977 337.477 385.284 340.625 383.284 344.784C381.284 348.943 380.284 354.045 380.284 360.091C380.284 366.136 381.295 371.239 383.318 375.398C385.341 379.557 388.08 382.705 391.534 384.841C394.989 386.977 398.875 388.045 403.193 388.045C407.193 388.045 410.716 387.193 413.761 385.489C416.83 383.761 419.216 381.33 420.92 378.193C422.648 375.034 423.511 371.318 423.511 367.045L426.102 367.591H405.102V360.091H431.693V367.591C431.693 373.341 430.466 378.341 428.011 382.591C425.58 386.841 422.216 390.136 417.92 392.477C413.648 394.795 408.739 395.955 403.193 395.955C397.011 395.955 391.58 394.5 386.898 391.591C382.239 388.682 378.602 384.545 375.989 379.182C373.398 373.818 372.102 367.455 372.102 360.091C372.102 354.568 372.841 349.602 374.318 345.193C375.818 340.761 377.932 336.989 380.659 333.875C383.386 330.761 386.614 328.375 390.341 326.716C394.068 325.057 398.17 324.227 402.648 324.227C406.33 324.227 409.761 324.784 412.943 325.898C416.148 326.989 419 328.545 421.5 330.568C424.023 332.568 426.125 334.966 427.807 337.761C429.489 340.534 430.648 343.614 431.284 347H422.557ZM446.881 395H438.017L463.653 325.182H472.381L498.017 395H489.153L468.29 336.227H467.744L446.881 395ZM450.153 367.727H485.881V375.227H450.153V367.727ZM561.793 347H553.338C552.838 344.568 551.963 342.432 550.713 340.591C549.486 338.75 547.986 337.205 546.213 335.955C544.463 334.682 542.52 333.727 540.384 333.091C538.247 332.455 536.02 332.136 533.702 332.136C529.474 332.136 525.645 333.205 522.213 335.341C518.804 337.477 516.088 340.625 514.065 344.784C512.065 348.943 511.065 354.045 511.065 360.091C511.065 366.136 512.065 371.239 514.065 375.398C516.088 379.557 518.804 382.705 522.213 384.841C525.645 386.977 529.474 388.045 533.702 388.045C536.02 388.045 538.247 387.727 540.384 387.091C542.52 386.455 544.463 385.511 546.213 384.261C547.986 382.989 549.486 381.432 550.713 379.591C551.963 377.727 552.838 375.591 553.338 373.182H561.793C561.156 376.75 559.997 379.943 558.315 382.761C556.634 385.58 554.543 387.977 552.043 389.955C549.543 391.909 546.736 393.398 543.622 394.42C540.531 395.443 537.224 395.955 533.702 395.955C527.747 395.955 522.452 394.5 517.815 391.591C513.179 388.682 509.531 384.545 506.872 379.182C504.213 373.818 502.884 367.455 502.884 360.091C502.884 352.727 504.213 346.364 506.872 341C509.531 335.636 513.179 331.5 517.815 328.591C522.452 325.682 527.747 324.227 533.702 324.227C537.224 324.227 540.531 324.739 543.622 325.761C546.736 326.784 549.543 328.284 552.043 330.261C554.543 332.216 556.634 334.602 558.315 337.42C559.997 340.216 561.156 343.409 561.793 347ZM569.455 325.182H579.136L598.5 357.773H599.318L618.682 325.182H628.364L603.136 366.227V395H594.682V366.227L569.455 325.182ZM662.48 332.682V325.182H714.844V332.682H692.889V395H684.435V332.682H662.48ZM727.892 395V325.182H770.028V332.682H736.347V356.273H767.847V363.773H736.347V387.5H770.574V395H727.892ZM789.358 325.182L807.358 354.227H807.903L825.903 325.182H835.858L813.903 360.091L835.858 395H825.903L807.903 366.5H807.358L789.358 395H779.403L801.903 360.091L779.403 325.182H789.358ZM843.043 332.682V325.182H895.406V332.682H873.452V395H864.997V332.682H843.043ZM916.909 325.182V395H908.455V325.182H916.909ZM933.861 395V325.182H942.315V387.5H974.77V395H933.861ZM987.861 395V325.182H1030V332.682H996.315V356.273H1027.82V363.773H996.315V387.5H1030.54V395H987.861Z" fill="black"/>
<path d="M517.045 449L510.682 425.727H513.545L518.409 444.682H518.636L523.591 425.727H526.773L531.727 444.682H531.955L536.818 425.727H539.682L533.318 449H530.409L525.273 430.455H525.091L519.955 449H517.045ZM548.295 449.364C546.72 449.364 545.337 448.989 544.148 448.239C542.966 447.489 542.042 446.439 541.375 445.091C540.716 443.742 540.386 442.167 540.386 440.364C540.386 438.545 540.716 436.958 541.375 435.602C542.042 434.246 542.966 433.193 544.148 432.443C545.337 431.693 546.72 431.318 548.295 431.318C549.871 431.318 551.25 431.693 552.432 432.443C553.621 433.193 554.545 434.246 555.205 435.602C555.871 436.958 556.205 438.545 556.205 440.364C556.205 442.167 555.871 443.742 555.205 445.091C554.545 446.439 553.621 447.489 552.432 448.239C551.25 448.989 549.871 449.364 548.295 449.364ZM548.295 446.955C549.492 446.955 550.477 446.648 551.25 446.034C552.023 445.42 552.595 444.614 552.966 443.614C553.337 442.614 553.523 441.53 553.523 440.364C553.523 439.197 553.337 438.11 552.966 437.102C552.595 436.095 552.023 435.28 551.25 434.659C550.477 434.038 549.492 433.727 548.295 433.727C547.098 433.727 546.114 434.038 545.341 434.659C544.568 435.28 543.996 436.095 543.625 437.102C543.254 438.11 543.068 439.197 543.068 440.364C543.068 441.53 543.254 442.614 543.625 443.614C543.996 444.614 544.568 445.42 545.341 446.034C546.114 446.648 547.098 446.955 548.295 446.955ZM560.298 449V431.545H562.889V434.182H563.071C563.389 433.318 563.965 432.617 564.798 432.08C565.632 431.542 566.571 431.273 567.616 431.273C567.813 431.273 568.06 431.277 568.355 431.284C568.651 431.292 568.874 431.303 569.026 431.318V434.045C568.935 434.023 568.726 433.989 568.401 433.943C568.082 433.89 567.745 433.864 567.389 433.864C566.541 433.864 565.783 434.042 565.116 434.398C564.457 434.746 563.935 435.231 563.548 435.852C563.17 436.466 562.98 437.167 562.98 437.955V449H560.298ZM572.205 449V431.545H574.795V434.182H574.977C575.295 433.318 575.871 432.617 576.705 432.08C577.538 431.542 578.477 431.273 579.523 431.273C579.72 431.273 579.966 431.277 580.261 431.284C580.557 431.292 580.78 431.303 580.932 431.318V434.045C580.841 434.023 580.633 433.989 580.307 433.943C579.989 433.89 579.652 433.864 579.295 433.864C578.447 433.864 577.689 434.042 577.023 434.398C576.364 434.746 575.841 435.231 575.455 435.852C575.076 436.466 574.886 437.167 574.886 437.955V449H572.205ZM586.369 455.545C585.915 455.545 585.509 455.508 585.153 455.432C584.797 455.364 584.551 455.295 584.415 455.227L585.097 452.864C585.748 453.03 586.324 453.091 586.824 453.045C587.324 453 587.767 452.777 588.153 452.375C588.547 451.981 588.907 451.341 589.233 450.455L589.733 449.091L583.278 431.545H586.188L591.006 445.455H591.188L596.006 431.545H598.915L591.506 451.545C591.172 452.447 590.759 453.193 590.267 453.784C589.775 454.383 589.203 454.826 588.551 455.114C587.907 455.402 587.18 455.545 586.369 455.545ZM611.818 449V425.727H625.773V428.227H614.636V436.091H624.727V438.591H614.636V449H611.818ZM636.045 449.364C634.47 449.364 633.087 448.989 631.898 448.239C630.716 447.489 629.792 446.439 629.125 445.091C628.466 443.742 628.136 442.167 628.136 440.364C628.136 438.545 628.466 436.958 629.125 435.602C629.792 434.246 630.716 433.193 631.898 432.443C633.087 431.693 634.47 431.318 636.045 431.318C637.621 431.318 639 431.693 640.182 432.443C641.371 433.193 642.295 434.246 642.955 435.602C643.621 436.958 643.955 438.545 643.955 440.364C643.955 442.167 643.621 443.742 642.955 445.091C642.295 446.439 641.371 447.489 640.182 448.239C639 448.989 637.621 449.364 636.045 449.364ZM636.045 446.955C637.242 446.955 638.227 446.648 639 446.034C639.773 445.42 640.345 444.614 640.716 443.614C641.087 442.614 641.273 441.53 641.273 440.364C641.273 439.197 641.087 438.11 640.716 437.102C640.345 436.095 639.773 435.28 639 434.659C638.227 434.038 637.242 433.727 636.045 433.727C634.848 433.727 633.864 434.038 633.091 434.659C632.318 435.28 631.746 436.095 631.375 437.102C631.004 438.11 630.818 439.197 630.818 440.364C630.818 441.53 631.004 442.614 631.375 443.614C631.746 444.614 632.318 445.42 633.091 446.034C633.864 446.648 634.848 446.955 636.045 446.955ZM648.048 449V431.545H650.639V434.182H650.821C651.139 433.318 651.715 432.617 652.548 432.08C653.382 431.542 654.321 431.273 655.366 431.273C655.563 431.273 655.81 431.277 656.105 431.284C656.401 431.292 656.624 431.303 656.776 431.318V434.045C656.685 434.023 656.476 433.989 656.151 433.943C655.832 433.89 655.495 433.864 655.139 433.864C654.291 433.864 653.533 434.042 652.866 434.398C652.207 434.746 651.685 435.231 651.298 435.852C650.92 436.466 650.73 437.167 650.73 437.955V449H648.048ZM688.045 433H685.227C685.061 432.189 684.769 431.477 684.352 430.864C683.943 430.25 683.443 429.735 682.852 429.318C682.269 428.894 681.621 428.576 680.909 428.364C680.197 428.152 679.455 428.045 678.682 428.045C677.273 428.045 675.996 428.402 674.852 429.114C673.716 429.826 672.811 430.875 672.136 432.261C671.47 433.648 671.136 435.348 671.136 437.364C671.136 439.379 671.47 441.08 672.136 442.466C672.811 443.852 673.716 444.902 674.852 445.614C675.996 446.326 677.273 446.682 678.682 446.682C679.455 446.682 680.197 446.576 680.909 446.364C681.621 446.152 682.269 445.837 682.852 445.42C683.443 444.996 683.943 444.477 684.352 443.864C684.769 443.242 685.061 442.53 685.227 441.727H688.045C687.833 442.917 687.447 443.981 686.886 444.92C686.326 445.86 685.629 446.659 684.795 447.318C683.962 447.97 683.027 448.466 681.989 448.807C680.958 449.148 679.856 449.318 678.682 449.318C676.697 449.318 674.932 448.833 673.386 447.864C671.841 446.894 670.625 445.515 669.739 443.727C668.852 441.939 668.409 439.818 668.409 437.364C668.409 434.909 668.852 432.788 669.739 431C670.625 429.212 671.841 427.833 673.386 426.864C674.932 425.894 676.697 425.409 678.682 425.409C679.856 425.409 680.958 425.58 681.989 425.92C683.027 426.261 683.962 426.761 684.795 427.42C685.629 428.072 686.326 428.867 686.886 429.807C687.447 430.739 687.833 431.803 688.045 433ZM694.918 438.5V449H692.236V425.727H694.918V434.273H695.145C695.554 433.371 696.168 432.655 696.986 432.125C697.812 431.587 698.91 431.318 700.281 431.318C701.471 431.318 702.512 431.557 703.406 432.034C704.3 432.504 704.993 433.227 705.486 434.205C705.986 435.174 706.236 436.409 706.236 437.909V449H703.554V438.091C703.554 436.705 703.194 435.633 702.474 434.875C701.762 434.11 700.774 433.727 699.509 433.727C698.63 433.727 697.842 433.913 697.145 434.284C696.455 434.655 695.91 435.197 695.509 435.909C695.115 436.621 694.918 437.485 694.918 438.5ZM718.233 449.364C716.657 449.364 715.275 448.989 714.085 448.239C712.903 447.489 711.979 446.439 711.312 445.091C710.653 443.742 710.324 442.167 710.324 440.364C710.324 438.545 710.653 436.958 711.312 435.602C711.979 434.246 712.903 433.193 714.085 432.443C715.275 431.693 716.657 431.318 718.233 431.318C719.809 431.318 721.188 431.693 722.369 432.443C723.559 433.193 724.483 434.246 725.142 435.602C725.809 436.958 726.142 438.545 726.142 440.364C726.142 442.167 725.809 443.742 725.142 445.091C724.483 446.439 723.559 447.489 722.369 448.239C721.188 448.989 719.809 449.364 718.233 449.364ZM718.233 446.955C719.43 446.955 720.415 446.648 721.188 446.034C721.96 445.42 722.532 444.614 722.903 443.614C723.275 442.614 723.46 441.53 723.46 440.364C723.46 439.197 723.275 438.11 722.903 437.102C722.532 436.095 721.96 435.28 721.188 434.659C720.415 434.038 719.43 433.727 718.233 433.727C717.036 433.727 716.051 434.038 715.278 434.659C714.506 435.28 713.934 436.095 713.562 437.102C713.191 438.11 713.006 439.197 713.006 440.364C713.006 441.53 713.191 442.614 713.562 443.614C713.934 444.614 714.506 445.42 715.278 446.034C716.051 446.648 717.036 446.955 718.233 446.955ZM730.236 449V431.545H732.918V449H730.236ZM731.599 428.636C731.077 428.636 730.626 428.458 730.247 428.102C729.876 427.746 729.69 427.318 729.69 426.818C729.69 426.318 729.876 425.89 730.247 425.534C730.626 425.178 731.077 425 731.599 425C732.122 425 732.569 425.178 732.94 425.534C733.319 425.89 733.509 426.318 733.509 426.818C733.509 427.318 733.319 427.746 732.94 428.102C732.569 428.458 732.122 428.636 731.599 428.636ZM744.92 449.364C743.284 449.364 741.875 448.977 740.693 448.205C739.511 447.432 738.602 446.367 737.966 445.011C737.33 443.655 737.011 442.106 737.011 440.364C737.011 438.591 737.337 437.027 737.989 435.67C738.648 434.307 739.564 433.242 740.739 432.477C741.92 431.705 743.299 431.318 744.875 431.318C746.102 431.318 747.208 431.545 748.193 432C749.178 432.455 749.985 433.091 750.614 433.909C751.242 434.727 751.633 435.682 751.784 436.773H749.102C748.898 435.977 748.443 435.273 747.739 434.659C747.042 434.038 746.102 433.727 744.92 433.727C743.875 433.727 742.958 434 742.17 434.545C741.39 435.083 740.78 435.845 740.341 436.83C739.909 437.807 739.693 438.955 739.693 440.273C739.693 441.621 739.905 442.795 740.33 443.795C740.761 444.795 741.367 445.572 742.148 446.125C742.936 446.678 743.86 446.955 744.92 446.955C745.617 446.955 746.25 446.833 746.818 446.591C747.386 446.348 747.867 446 748.261 445.545C748.655 445.091 748.936 444.545 749.102 443.909H751.784C751.633 444.939 751.258 445.867 750.659 446.693C750.068 447.511 749.284 448.163 748.307 448.648C747.337 449.125 746.208 449.364 744.92 449.364ZM763.023 449.364C761.341 449.364 759.89 448.992 758.67 448.25C757.458 447.5 756.523 446.455 755.864 445.114C755.212 443.765 754.886 442.197 754.886 440.409C754.886 438.621 755.212 437.045 755.864 435.682C756.523 434.311 757.439 433.242 758.614 432.477C759.795 431.705 761.174 431.318 762.75 431.318C763.659 431.318 764.557 431.47 765.443 431.773C766.33 432.076 767.136 432.568 767.864 433.25C768.591 433.924 769.17 434.818 769.602 435.932C770.034 437.045 770.25 438.417 770.25 440.045V441.182H756.795V438.864H767.523C767.523 437.879 767.326 437 766.932 436.227C766.545 435.455 765.992 434.845 765.273 434.398C764.561 433.951 763.72 433.727 762.75 433.727C761.682 433.727 760.758 433.992 759.977 434.523C759.205 435.045 758.61 435.727 758.193 436.568C757.777 437.409 757.568 438.311 757.568 439.273V440.818C757.568 442.136 757.795 443.254 758.25 444.17C758.712 445.08 759.352 445.773 760.17 446.25C760.989 446.72 761.939 446.955 763.023 446.955C763.727 446.955 764.364 446.856 764.932 446.659C765.508 446.455 766.004 446.152 766.42 445.75C766.837 445.341 767.159 444.833 767.386 444.227L769.977 444.955C769.705 445.833 769.246 446.606 768.602 447.273C767.958 447.932 767.163 448.447 766.216 448.818C765.269 449.182 764.205 449.364 763.023 449.364ZM777.875 425.727L777.648 442.455H775.011L774.784 425.727H777.875ZM776.33 449.182C775.769 449.182 775.288 448.981 774.886 448.58C774.485 448.178 774.284 447.697 774.284 447.136C774.284 446.576 774.485 446.095 774.886 445.693C775.288 445.292 775.769 445.091 776.33 445.091C776.89 445.091 777.371 445.292 777.773 445.693C778.174 446.095 778.375 446.576 778.375 447.136C778.375 447.508 778.28 447.848 778.091 448.159C777.909 448.47 777.663 448.72 777.352 448.909C777.049 449.091 776.708 449.182 776.33 449.182Z" fill="black"/>
</svg>
