<svg width="1080" height="1080" viewBox="0 0 1080 1080" fill="none" xmlns="http://www.w3.org/2000/svg">
<rect width="1080" height="1080" fill="white"/>
<path fill-rule="evenodd" clip-rule="evenodd" d="M181 77H181.086L203.707 100.008V812.216H235.496V132.341L258.203 155.437V812.216H289.992V187.771L312.699 210.866V812.216H344.488V243.2L367.195 266.296V812.216L712.338 812.216L735.212 835.482H367.195V868.055H767.237L790.111 891.322H367.195V923.894H822.136L845.01 947.161H367.195V979.734H877.035L899.909 1003H370.086L344.488 976.965V947.161H315.187L289.992 921.535V891.322H260.287L235.496 866.106V835.482H205.388L182.514 812.216L181 813.756V812.216V77ZM258.203 868.055V835.482H289.992V868.055H258.203ZM312.699 868.055V835.482H344.488V868.055H312.699ZM312.699 891.322H344.488V923.894H312.699V891.322Z" fill="black"/>
</svg>
