<?xml version="1.0" standalone="no"?>
<!DOCTYPE svg PUBLIC "-//W3C//DTD SVG 20010904//EN"
 "http://www.w3.org/TR/2001/REC-SVG-20010904/DTD/svg10.dtd">
<svg version="1.0" xmlns="http://www.w3.org/2000/svg"
 width="1080.000000pt" height="1080.000000pt" viewBox="0 0 1080.000000 1080.000000"
 preserveAspectRatio="xMidYMid meet">

<g transform="translate(0.000000,1080.000000) scale(0.100000,-0.100000)"
fill="#000000" stroke="none">
<path d="M570 6100 l0 -1731 117 -124 118 -124 63 -1 62 0 0 -65 0 -66 103
-108 102 -109 73 -1 72 -1 0 -75 0 -75 101 -105 102 -105 78 0 79 0 0 -84 0
-85 86 -90 86 -91 1541 0 1541 0 -69 70 -69 70 -1483 0 -1483 0 0 105 0 105
1367 0 1367 0 -74 75 -74 75 -1293 0 -1293 0 0 105 0 105 1177 0 1177 0 -74
75 -74 75 -1103 0 -1103 0 0 100 0 100 992 0 992 0 -74 75 -74 75 -918 0 -918
0 0 1780 0 1780 -75 0 -75 0 0 -1780 0 -1780 -105 0 -105 0 0 1780 0 1780 -75
0 -75 0 0 -1780 0 -1781 -102 3 -103 3 -3 1778 -2 1777 -70 0 -70 0 -2 -1777
-3 -1778 -102 -3 -103 -3 0 1781 0 1780 -75 0 -75 0 0 -1730z m710 -2080 l0
-100 -105 0 -105 0 0 100 0 100 105 0 105 0 0 -100z m360 0 l0 -100 -105 0
-105 0 0 100 0 100 105 0 105 0 0 -100z m-5 -355 l0 -100 -102 -3 -103 -3 0
99 c0 54 3 102 7 106 4 4 50 5 103 4 l95 -3 0 -100z"/>
<path d="M3306 5853 c-3 -3 -6 -134 -6 -290 l0 -283 180 0 180 0 0 30 0 30
-145 0 -145 0 0 248 c0 136 -4 252 -8 257 -8 12 -47 17 -56 8z"/>
<path d="M3774 5851 c-2 -2 -4 -132 -4 -288 l0 -283 220 0 220 0 0 30 0 30
-190 0 -191 0 3 98 3 97 168 3 167 2 0 30 0 30 -170 0 -170 0 0 95 0 95 180 0
180 0 0 33 0 32 -206 0 c-113 0 -208 -2 -210 -4z"/>
<path d="M4477 5842 c-69 -25 -116 -67 -146 -131 -22 -47 -26 -70 -26 -146 0
-78 4 -97 28 -147 16 -32 45 -70 66 -87 40 -32 131 -61 188 -61 81 0 184 35
231 80 20 19 22 30 22 116 l0 95 -117 -3 -118 -3 0 -25 c0 -25 2 -25 88 -28
l88 -3 -3 -57 c-3 -56 -4 -57 -48 -81 -66 -37 -188 -41 -250 -9 -72 37 -110
110 -110 214 0 70 24 145 57 176 81 78 235 79 303 2 26 -30 35 -35 60 -29 17
4 30 11 30 16 0 5 -16 27 -36 49 -66 73 -198 100 -307 62z"/>
<path d="M5150 5840 c-6 -13 -194 -469 -221 -538 -8 -22 -7 -23 27 -20 35 3
37 5 66 81 l30 78 140 -3 140 -3 30 -77 c30 -76 32 -78 65 -78 l33 0 -13 33
c-7 17 -60 147 -116 288 l-103 255 -35 0 c-20 -1 -38 -7 -43 -16z m98 -189
c29 -76 52 -141 52 -145 0 -3 -50 -6 -111 -6 -85 0 -110 3 -107 13 40 112 104
277 109 277 3 0 28 -62 57 -139z"/>
<path d="M5690 5840 c-117 -40 -178 -150 -167 -300 6 -89 25 -136 73 -190 45
-50 110 -75 194 -75 93 1 144 19 196 70 49 49 54 69 23 85 -18 10 -25 6 -57
-30 -20 -24 -51 -49 -69 -56 -66 -28 -175 -12 -227 34 -39 35 -66 112 -66 192
0 85 20 139 66 181 80 72 220 64 289 -17 28 -32 34 -34 58 -25 27 10 27 11 12
40 -48 93 -198 135 -325 91z"/>
<path d="M6110 5849 c0 -5 47 -80 105 -167 l105 -157 0 -122 0 -123 35 0 35 0
0 118 0 117 109 165 c60 91 107 167 105 169 -10 11 -56 5 -68 -9 -8 -8 -48
-69 -90 -135 -42 -66 -82 -120 -88 -120 -6 0 -49 61 -97 135 -80 125 -89 135
-119 136 -18 1 -32 -2 -32 -7z"/>
<path d="M6904 5851 c-2 -2 -4 -17 -4 -32 l0 -28 98 -3 97 -3 2 -250 2 -250
30 -3 31 -3 0 255 0 256 101 0 100 0 -3 31 -3 31 -223 1 c-123 1 -226 0 -228
-2z"/>
<path d="M7464 5851 c-2 -2 -4 -132 -4 -288 l0 -283 220 0 220 0 0 30 0 30
-185 0 -185 0 0 100 0 100 165 0 165 0 0 30 0 30 -165 0 -165 0 0 95 0 95 180
0 180 0 0 30 c0 17 -3 30 -7 30 -113 3 -416 4 -419 1z"/>
<path d="M8000 5849 c0 -6 38 -61 84 -122 46 -62 89 -122 96 -133 12 -19 3
-34 -85 -155 -54 -74 -102 -140 -108 -146 -7 -10 -1 -13 27 -13 34 0 39 4 123
125 49 68 91 125 94 125 5 0 103 -139 153 -217 18 -27 27 -32 60 -33 l38 0
-24 33 c-14 17 -61 85 -106 149 l-82 117 67 93 c36 51 79 109 95 129 36 47 35
57 -4 55 -30 -1 -39 -11 -108 -113 -41 -62 -80 -112 -87 -113 -6 0 -47 50 -89
110 -42 61 -80 110 -83 111 -3 0 -18 2 -33 4 -16 2 -28 -1 -28 -6z"/>
<path d="M8538 5843 c-5 -7 -8 -20 -6 -30 3 -16 16 -18 101 -21 l97 -3 0 -254
0 -255 35 0 35 0 0 255 0 255 94 0 c99 0 112 5 102 43 -5 22 -7 22 -226 22
-161 0 -224 -3 -232 -12z"/>
<path d="M9115 5852 c-3 -3 -5 -133 -5 -289 l0 -283 30 0 30 0 -2 287 -3 286
-23 2 c-12 1 -24 -1 -27 -3z"/>
<path d="M9336 5853 c-3 -4 -6 -134 -6 -290 l0 -283 180 0 180 0 0 30 0 30
-145 0 -145 0 -2 256 -3 257 -27 3 c-14 1 -29 0 -32 -3z"/>
<path d="M9804 5851 c-2 -2 -4 -132 -4 -288 l0 -283 220 0 220 0 0 30 0 30
-184 0 -185 0 -3 96 c-2 53 -1 98 1 100 2 2 78 4 168 4 l163 0 0 30 0 30 -164
0 -165 0 -3 91 c-2 50 -1 93 1 95 2 2 82 4 177 4 111 0 175 4 179 11 4 5 4 20
1 32 -5 22 -7 22 -211 22 -114 0 -209 -2 -211 -4z"/>
<path d="M6438 5010 c-9 -6 -19 -24 -23 -40 -4 -16 -11 -32 -16 -35 -5 -4 -9
-11 -9 -16 0 -6 4 -8 10 -4 5 3 10 -22 12 -61 2 -43 8 -69 16 -72 9 -3 12 15
12 68 0 51 4 70 13 69 23 -3 37 1 37 11 0 6 -12 10 -26 10 -22 0 -25 4 -22 28
2 19 9 28 26 30 12 2 20 8 17 13 -8 12 -25 11 -47 -1z"/>
<path d="M7340 4900 c0 -73 4 -120 10 -120 6 0 10 24 10 53 0 41 5 58 19 71
41 37 85 -10 79 -83 -2 -22 2 -36 11 -39 11 -4 13 8 9 58 -6 77 -31 105 -85
95 l-33 -6 0 46 c0 25 -4 45 -10 45 -6 0 -10 -47 -10 -120z"/>
<path d="M5281 4998 c1 -31 65 -212 76 -215 7 -3 21 26 36 74 14 42 29 79 33
80 5 2 20 -33 33 -77 13 -44 29 -80 36 -80 14 0 85 224 73 229 -14 5 -17 -1
-41 -85 -13 -44 -27 -78 -32 -77 -5 1 -20 38 -33 83 -14 44 -30 79 -36 77 -6
-2 -21 -37 -33 -77 -30 -100 -38 -105 -58 -34 -28 100 -31 108 -43 112 -7 2
-12 -2 -11 -10z"/>
<path d="M7727 5004 c-8 -8 1 -24 14 -24 5 0 9 7 9 15 0 15 -12 20 -23 9z"/>
<path d="M8192 4928 c2 -54 7 -83 16 -86 9 -3 12 18 12 82 0 70 -3 86 -15 86
-13 0 -15 -14 -13 -82z"/>
<path d="M5646 4919 c-69 -54 7 -172 81 -124 53 35 52 109 -3 134 -35 16 -48
14 -78 -10z m84 -19 c22 -22 25 -42 10 -71 -12 -22 -68 -27 -88 -7 -20 20 -14
65 10 82 30 21 44 20 68 -4z"/>
<path d="M5820 4860 c0 -47 4 -80 10 -80 6 0 10 24 10 53 0 55 22 92 50 85 7
-2 15 3 17 10 3 7 -3 12 -14 12 -11 0 -25 -6 -32 -12 -11 -10 -14 -10 -18 0
-13 34 -23 4 -23 -68z"/>
<path d="M5960 4861 c0 -92 17 -111 22 -23 3 54 5 58 36 71 17 8 32 18 32 23
0 12 -34 10 -48 -4 -8 -8 -15 -8 -27 2 -13 11 -15 3 -15 -69z"/>
<path d="M6090 4935 c0 -3 14 -33 31 -68 33 -64 33 -61 4 -129 -4 -11 -3 -18
4 -18 7 0 34 48 61 106 55 117 54 114 40 114 -5 0 -21 -22 -35 -50 -14 -27
-29 -50 -33 -50 -4 0 -18 23 -29 50 -12 28 -26 50 -32 50 -6 0 -11 -2 -11 -5z"/>
<path d="M6532 4863 c3 -90 21 -102 26 -18 2 45 7 57 25 67 12 6 24 10 27 9 2
-1 6 2 8 8 5 14 -14 14 -38 1 -13 -7 -21 -7 -25 0 -17 28 -26 4 -23 -67z"/>
<path d="M6689 4911 c-35 -36 -37 -61 -5 -97 17 -21 32 -28 60 -28 20 0 41 5
48 12 9 9 2 12 -34 12 -28 0 -50 6 -58 15 -7 8 -9 15 -4 16 5 0 32 1 59 2 49
2 50 2 47 32 -3 34 -34 65 -64 65 -11 0 -33 -13 -49 -29z m79 -3 c25 -25 13
-38 -33 -38 -49 0 -53 4 -28 32 19 21 44 23 61 6z"/>
<path d="M6880 4915 c-49 -52 -16 -129 55 -129 19 0 40 5 47 12 9 9 2 12 -34
12 -28 0 -50 6 -58 14 -10 13 -3 15 47 18 58 3 58 3 56 33 -3 34 -35 65 -67
65 -13 0 -33 -11 -46 -25z m71 -5 c36 -20 23 -40 -26 -40 -49 0 -53 4 -28 32
19 21 27 22 54 8z"/>
<path d="M7175 4915 c-59 -59 1 -155 78 -126 42 16 32 29 -17 24 -38 -5 -46
-2 -56 17 -26 49 22 106 68 81 13 -7 23 -7 27 -2 7 12 -26 31 -55 31 -11 0
-32 -11 -45 -25z"/>
<path d="M7554 4917 c-20 -17 -27 -33 -27 -57 0 -37 39 -80 73 -80 34 0 73 43
73 80 0 37 -39 80 -73 80 -10 0 -31 -11 -46 -23z m89 -29 c19 -25 19 -28 3
-52 -18 -28 -63 -35 -84 -14 -20 20 -14 65 11 83 29 20 45 16 70 -17z"/>
<path d="M7730 4860 c0 -47 4 -80 10 -80 6 0 10 33 10 80 0 47 -4 80 -10 80
-6 0 -10 -33 -10 -80z"/>
<path d="M7843 4928 c-31 -15 -49 -62 -35 -93 17 -37 58 -60 89 -49 42 15 41
34 -1 27 -44 -7 -66 9 -66 48 0 48 38 71 81 49 12 -7 19 -7 19 -1 0 12 -33 31
-52 30 -7 0 -23 -5 -35 -11z"/>
<path d="M8016 4919 c-43 -34 -32 -110 20 -129 26 -10 84 -3 84 11 0 5 -20 9
-44 9 -26 0 -48 6 -56 15 -7 8 -9 15 -4 16 5 0 32 1 59 2 43 2 50 5 53 24 4
27 -38 73 -66 73 -11 0 -31 -9 -46 -21z m82 -26 c14 -23 14 -23 -37 -23 -55 0
-64 10 -28 35 28 19 46 16 65 -12z"/>
<path d="M8192 4799 c2 -6 8 -10 13 -10 5 0 11 4 13 10 2 6 -4 11 -13 11 -9 0
-15 -5 -13 -11z"/>
</g>
</svg>
